<mxfile host="app.diagrams.net" agent="Mozilla/5.0 (Windows NT 10.0; Win64; x64) AppleWebKit/537.36 (KHTML, like Gecko) Chrome/129.0.0.0 Safari/537.36" version="24.7.17">
  <diagram name="PÃ¡gina-1" id="o_wEAVr2ujUH5b_0rQYD">
    <mxGraphModel>
      <root>
        <mxCell id="0" />
        <mxCell id="1" parent="0" />
        <mxCell id="2" value="Start" style="whiteSpace=wrap;strokeWidth=2;" vertex="1" parent="1">
          <mxGeometry x="8" y="256" width="96" height="49" as="geometry" />
        </mxCell>
        <mxCell id="3" value="Administrator?" style="rounded=1;arcSize=40;strokeWidth=2" vertex="1" parent="1">
          <mxGeometry x="154" y="256" width="135" height="49" as="geometry" />
        </mxCell>
        <mxCell id="4" value="Upload content" style="rhombus;strokeWidth=2;whiteSpace=wrap;" vertex="1" parent="1">
          <mxGeometry x="368" y="101" width="160" height="160" as="geometry" />
        </mxCell>
        <mxCell id="5" value="Upload video" style="whiteSpace=wrap;strokeWidth=2;" vertex="1" parent="1">
          <mxGeometry x="641" y="8" width="154" height="49" as="geometry" />
        </mxCell>
        <mxCell id="6" value="Upload PDF" style="whiteSpace=wrap;strokeWidth=2;" vertex="1" parent="1">
          <mxGeometry x="647" y="107" width="142" height="49" as="geometry" />
        </mxCell>
        <mxCell id="7" value="Upload image" style="whiteSpace=wrap;strokeWidth=2;" vertex="1" parent="1">
          <mxGeometry x="639" y="206" width="158" height="49" as="geometry" />
        </mxCell>
        <mxCell id="8" value="Add text content" style="whiteSpace=wrap;strokeWidth=2;" vertex="1" parent="1">
          <mxGeometry x="626" y="305" width="183" height="49" as="geometry" />
        </mxCell>
        <mxCell id="9" value="Non-Administrator" style="rounded=1;arcSize=40;strokeWidth=2" vertex="1" parent="1">
          <mxGeometry x="367" y="404" width="162" height="49" as="geometry" />
        </mxCell>
        <mxCell id="10" value="Read content" style="rounded=1;arcSize=40;strokeWidth=2" vertex="1" parent="1">
          <mxGeometry x="655" y="404" width="126" height="49" as="geometry" />
        </mxCell>
        <mxCell id="11" value="" style="curved=1;startArrow=none;endArrow=block;exitX=1;exitY=0.49;entryX=0;entryY=0.49;" edge="1" parent="1" source="2" target="3">
          <mxGeometry relative="1" as="geometry">
            <Array as="points" />
          </mxGeometry>
        </mxCell>
        <mxCell id="12" value="Yes" style="curved=1;startArrow=none;endArrow=block;exitX=0.69;exitY=-0.01;entryX=0;entryY=0.5;" edge="1" parent="1" source="3" target="4">
          <mxGeometry relative="1" as="geometry">
            <Array as="points">
              <mxPoint x="328" y="181" />
            </Array>
          </mxGeometry>
        </mxCell>
        <mxCell id="13" value="Video" style="curved=1;startArrow=none;endArrow=block;exitX=0.94;exitY=0;entryX=0;entryY=0.5;" edge="1" parent="1" source="4" target="5">
          <mxGeometry relative="1" as="geometry">
            <Array as="points">
              <mxPoint x="578" y="33" />
            </Array>
          </mxGeometry>
        </mxCell>
        <mxCell id="14" value="PDF" style="curved=1;startArrow=none;endArrow=block;exitX=1;exitY=0.31;entryX=0;entryY=0.5;" edge="1" parent="1" source="4" target="6">
          <mxGeometry relative="1" as="geometry">
            <Array as="points">
              <mxPoint x="578" y="132" />
            </Array>
          </mxGeometry>
        </mxCell>
        <mxCell id="15" value="Image" style="curved=1;startArrow=none;endArrow=block;exitX=1;exitY=0.69;entryX=0;entryY=0.5;" edge="1" parent="1" source="4" target="7">
          <mxGeometry relative="1" as="geometry">
            <Array as="points">
              <mxPoint x="578" y="231" />
            </Array>
          </mxGeometry>
        </mxCell>
        <mxCell id="16" value="Text" style="curved=1;startArrow=none;endArrow=block;exitX=0.94;exitY=1;entryX=0;entryY=0.5;" edge="1" parent="1" source="4" target="8">
          <mxGeometry relative="1" as="geometry">
            <Array as="points">
              <mxPoint x="578" y="330" />
            </Array>
          </mxGeometry>
        </mxCell>
        <mxCell id="17" value="No" style="curved=1;startArrow=none;endArrow=block;exitX=0.63;exitY=0.99;entryX=0;entryY=0.5;" edge="1" parent="1" source="3" target="9">
          <mxGeometry relative="1" as="geometry">
            <Array as="points">
              <mxPoint x="328" y="429" />
            </Array>
          </mxGeometry>
        </mxCell>
        <mxCell id="18" value="" style="curved=1;startArrow=none;endArrow=block;exitX=1;exitY=0.5;entryX=0;entryY=0.5;" edge="1" parent="1" source="9" target="10">
          <mxGeometry relative="1" as="geometry">
            <Array as="points" />
          </mxGeometry>
        </mxCell>
      </root>
    </mxGraphModel>
  </diagram>
</mxfile>
